<?xml version='1.0'?>
<svg xmlns:ev="http://www.w3.org/2001/xml-events" width="256" xmlns:xlink="http://www.w3.org/1999/xlink" baseProfile="full" version="1.1" height="256" viewBox="0 0 256 256" xmlns="http://www.w3.org/2000/svg">
    <defs/>
    <g transform="matrix(6.0952381,0,0,6.0952381,-761.90476,-761.90476)">
        <path d="M 153 155 C 150.242188 155 148 152.757812 148 150 C 148 147.242188 150.242188 145 153 145 C 155.757812 145 158 147.242188 158 150 C 158 152.757812 155.757812 155 153 155 Z M 139 155 C 136.242188 155 134 152.757812 134 150 C 134 147.242188 136.242188 145 139 145 C 141.757812 145 144 147.242188 144 150 C 144 152.757812 141.757812 155 139 155 Z M 160 139 L 132 139 C 130.898438 139 130 139.898438 130 141 L 130 160 C 130 163.308594 132.691406 166 136 166 L 156 166 C 159.308594 166 162 163.308594 162 160 L 162 141 C 162 139.898438 161.101562 139 160 139 " style=" stroke:none;fill-rule:nonzero;fill:rgb(70.014954%,81.88324%,93.862915%);fill-opacity:1;"/>
        <path d="M 136.273438 139 C 138.453125 135.976562 141.996094 134 146 134 C 150.003906 134 153.546875 135.976562 155.726562 139 L 158.105469 139 C 155.679688 134.820312 151.167969 132 146 132 C 140.832031 132 136.320312 134.820312 133.894531 139 L 136.273438 139 " style=" stroke:none;fill-rule:nonzero;fill:rgb(18.226624%,28.944397%,50.982666%);fill-opacity:1;"/>
        <path d="M 139 136 C 138.707031 136 138.417969 135.871094 138.21875 135.625 L 134.21875 130.625 C 133.875 130.191406 133.945312 129.5625 134.375 129.21875 C 134.804688 128.875 135.4375 128.945312 135.78125 129.375 L 139.78125 134.375 C 140.125 134.808594 140.054688 135.4375 139.625 135.78125 C 139.441406 135.929688 139.21875 136 139 136 " style=" stroke:none;fill-rule:nonzero;fill:rgb(18.226624%,28.944397%,50.982666%);fill-opacity:1;"/>
        <path d="M 134 130 C 132.898438 130 132 129.101562 132 128 C 132 126.898438 132.898438 126 134 126 C 135.101562 126 136 126.898438 136 128 C 136 129.101562 135.101562 130 134 130 " style=" stroke:none;fill-rule:nonzero;fill:rgb(70.014954%,81.88324%,93.862915%);fill-opacity:1;"/>
        <path d="M 158 130 C 156.898438 130 156 129.101562 156 128 C 156 126.898438 156.898438 126 158 126 C 159.101562 126 160 126.898438 160 128 C 160 129.101562 159.101562 130 158 130 " style=" stroke:none;fill-rule:nonzero;fill:rgb(70.014954%,81.88324%,93.862915%);fill-opacity:1;"/>
        <path d="M 153 136 C 152.78125 136 152.558594 135.929688 152.375 135.78125 C 151.945312 135.4375 151.875 134.808594 152.21875 134.375 L 156.21875 129.375 C 156.5625 128.945312 157.195312 128.875 157.625 129.21875 C 158.054688 129.5625 158.125 130.191406 157.78125 130.625 L 153.78125 135.625 C 153.582031 135.871094 153.292969 136 153 136 " style=" stroke:none;fill-rule:nonzero;fill:rgb(18.226624%,28.944397%,50.982666%);fill-opacity:1;"/>
        <path d="M 162 144 L 162 146 C 163.652344 146 165 147.347656 165 149 L 165 155 C 165 156.652344 163.652344 158 162 158 L 162 160 C 164.757812 160 167 157.757812 167 155 L 167 149 C 167 146.242188 164.757812 144 162 144 " style=" stroke:none;fill-rule:nonzero;fill:rgb(18.226624%,28.944397%,50.982666%);fill-opacity:1;"/>
        <path d="M 127 155 L 127 149 C 127 147.347656 128.347656 146 130 146 L 130 144 C 127.242188 144 125 146.242188 125 149 L 125 155 C 125 157.757812 127.242188 160 130 160 L 130 158 C 128.347656 158 127 156.652344 127 155 " style=" stroke:none;fill-rule:nonzero;fill:rgb(18.226624%,28.944397%,50.982666%);fill-opacity:1;"/>
        <path d="M 132 140 C 131.449219 140 131 140.449219 131 141 L 131 160 C 131 162.757812 133.242188 165 136 165 L 156 165 C 158.757812 165 161 162.757812 161 160 L 161 141 C 161 140.449219 160.550781 140 160 140 Z M 156 167 L 136 167 C 132.140625 167 129 163.859375 129 160 L 129 141 C 129 139.347656 130.347656 138 132 138 L 160 138 C 161.652344 138 163 139.347656 163 141 L 163 160 C 163 163.859375 159.859375 167 156 167 " style=" stroke:none;fill-rule:nonzero;fill:rgb(18.226624%,28.944397%,50.982666%);fill-opacity:1;"/>
        <path d="M 146 162 C 143.789062 162 141.644531 160.9375 141.554688 160.894531 C 141.058594 160.648438 140.859375 160.046875 141.105469 159.554688 C 141.351562 159.0625 141.949219 158.859375 142.445312 159.105469 C 142.464844 159.113281 144.269531 160 146 160 C 147.730469 160 149.535156 159.113281 149.554688 159.105469 C 150.046875 158.859375 150.648438 159.0625 150.894531 159.554688 C 151.140625 160.046875 150.941406 160.648438 150.445312 160.894531 C 150.355469 160.9375 148.210938 162 146 162 " style=" stroke:none;fill-rule:nonzero;fill:rgb(18.226624%,28.944397%,50.982666%);fill-opacity:1;"/>
        <path d="M 139 146 C 136.792969 146 135 147.792969 135 150 C 135 152.207031 136.792969 154 139 154 C 141.207031 154 143 152.207031 143 150 C 143 147.792969 141.207031 146 139 146 Z M 139 156 C 135.691406 156 133 153.308594 133 150 C 133 146.691406 135.691406 144 139 144 C 142.308594 144 145 146.691406 145 150 C 145 153.308594 142.308594 156 139 156 " style=" stroke:none;fill-rule:nonzero;fill:rgb(18.226624%,28.944397%,50.982666%);fill-opacity:1;"/>
        <path d="M 139 150 L 139.011719 150 Z M 139 150 L 139.011719 150 Z M 139 150 L 139.011719 150 Z M 139 150 L 139.011719 150 Z M 139 150 L 139.011719 150 Z M 139 150 L 139.011719 150 Z M 139 150 L 139.011719 150 Z M 139 150 L 139.011719 150 Z M 139 152 C 137.898438 152 137 151.101562 137 150 C 137 148.898438 137.898438 148 139 148 C 140.101562 148 141 148.898438 141 150 C 141 151.101562 140.101562 152 139 152 " style=" stroke:none;fill-rule:nonzero;fill:rgb(18.226624%,28.944397%,50.982666%);fill-opacity:1;"/>
        <path d="M 153 146 C 150.792969 146 149 147.792969 149 150 C 149 152.207031 150.792969 154 153 154 C 155.207031 154 157 152.207031 157 150 C 157 147.792969 155.207031 146 153 146 Z M 153 156 C 149.691406 156 147 153.308594 147 150 C 147 146.691406 149.691406 144 153 144 C 156.308594 144 159 146.691406 159 150 C 159 153.308594 156.308594 156 153 156 " style=" stroke:none;fill-rule:nonzero;fill:rgb(18.226624%,28.944397%,50.982666%);fill-opacity:1;"/>
        <path d="M 153 150 L 153.011719 150 Z M 153 150 L 153.011719 150 Z M 153 150 L 153.011719 150 Z M 153 150 L 153.011719 150 Z M 153 150 L 153.011719 150 Z M 153 150 L 153.011719 150 Z M 153 150 L 153.011719 150 Z M 153 150 L 153.011719 150 Z M 153 152 C 151.898438 152 151 151.101562 151 150 C 151 148.898438 151.898438 148 153 148 C 154.101562 148 155 148.898438 155 150 C 155 151.101562 154.101562 152 153 152 " style=" stroke:none;fill-rule:nonzero;fill:rgb(18.226624%,28.944397%,50.982666%);fill-opacity:1;"/>
        <path d="M 134 127 C 133.449219 127 133 127.449219 133 128 C 133 128.550781 133.449219 129 134 129 C 134.550781 129 135 128.550781 135 128 C 135 127.449219 134.550781 127 134 127 Z M 134 131 C 132.347656 131 131 129.652344 131 128 C 131 126.347656 132.347656 125 134 125 C 135.652344 125 137 126.347656 137 128 C 137 129.652344 135.652344 131 134 131 " style=" stroke:none;fill-rule:nonzero;fill:rgb(18.226624%,28.944397%,50.982666%);fill-opacity:1;"/>
        <path d="M 158 127 C 157.449219 127 157 127.449219 157 128 C 157 128.550781 157.449219 129 158 129 C 158.550781 129 159 128.550781 159 128 C 159 127.449219 158.550781 127 158 127 Z M 158 131 C 156.347656 131 155 129.652344 155 128 C 155 126.347656 156.347656 125 158 125 C 159.652344 125 161 126.347656 161 128 C 161 129.652344 159.652344 131 158 131 " style=" stroke:none;fill-rule:nonzero;fill:rgb(18.226624%,28.944397%,50.982666%);fill-opacity:1;"/>
    </g>
</svg>
