<svg height="256" id="图层_1" viewBox="0 0 256 256" width="256" xmlns="http://www.w3.org/2000/svg" data-name="图层 1">
    <defs>
        <style>.cls-1{fill:#7ac943;}.cls-2{fill:#69ad3a;}.cls-3{fill:#fff;}</style>
    </defs>
    <title>对2</title>
    <g transform="matrix(0.27826084,0,0,0.27826084,-14.469552,-14.469564)">
        <path class="cls-1" d="M805.363,301.053l164.3,164.3C946.282,233.21,750.3,52,512,52,257.949,52,52,257.949,52,512S257.949,972,512,972a461.175,461.175,0,0,0,107.8-12.709L384.612,724.1Z"/>
        <path class="cls-2" d="M972,512a465.686,465.686,0,0,0-2.338-46.648l-164.3-164.3L384.612,724.1,619.8,959.291C821.844,910.772,972,728.924,972,512Z"/>
        <path class="cls-3" d="M805.363,301.053a65.051,65.051,0,0,0-91.995,0L429.515,584.906,310.632,466.023a65.05,65.05,0,1,0-91.995,91.994L382.912,722.291c.182.192.369.388.6.616a65.458,65.458,0,0,0,10.218,8.34,65.073,65.073,0,0,0,81.826-8.291c.6-.6,316.37-316.467,329.811-329.91a65.05,65.05,0,0,0,0-91.993Z"/>
    </g>
</svg>
