<svg width="256" height="256" xmlns="http://www.w3.org/2000/svg" id="图层_1" data-name="图层 1" viewBox="0 0 256 256">
    <defs>
        <style>.cls-1{fill:#db1100;}.cls-2{fill:#b30d00;}.cls-3{fill:#fff;}</style>
    </defs>
    <title>错3</title>
    <g transform="matrix(0.27826087,0,0,0.27826087,-14.469565,-14.469565)">
        <path class="cls-1" d="M725.141,298.872,972,545.731V282C972,154.975,869.025,52,742,52H282C154.975,52,52,154.975,52,282V742c0,127.026,102.975,230,230,230H545.759L298.888,725.129Z"/>
        <path class="cls-2" d="M972,742V545.731L725.141,298.872,298.888,725.129,545.759,972H742C869.025,972,972,869.026,972,742Z"/>
        <path class="cls-3" d="M593.482,512,725.141,380.341a57.607,57.607,0,0,0-81.468-81.469L512.014,430.532l-131.66-131.66a57.607,57.607,0,1,0-81.467,81.469L430.546,512,298.887,643.662a57.605,57.605,0,1,0,81.467,81.465l131.66-131.659,131.66,131.661a57.606,57.606,0,0,0,81.467-81.467Z"/>
    </g>
</svg>
